<svg xmlns="http://www.w3.org/2000/svg" width="60" height="60" viewBox="0 0 60 60"><defs><style>.a{fill:#26a6d1;}.b{fill:#fff;}</style></defs><path class="a" d="M30,0A30,30,0,1,1,0,30,30,30,0,0,1,30,0Z"/><path class="b" d="M102.5,85.607a16.263,16.263,0,0,1-4.572,1.219,7.788,7.788,0,0,0,3.5-4.276,16.136,16.136,0,0,1-5.056,1.876,8.062,8.062,0,0,0-5.809-2.437,7.842,7.842,0,0,0-7.957,7.722,7.5,7.5,0,0,0,.206,1.762,22.829,22.829,0,0,1-16.4-8.071,7.5,7.5,0,0,0-1.078,3.882,7.659,7.659,0,0,0,3.54,6.428,8.092,8.092,0,0,1-3.607-.967v.1a7.792,7.792,0,0,0,6.385,7.575,8.23,8.23,0,0,1-2.1.272,8.026,8.026,0,0,1-1.5-.139,7.938,7.938,0,0,0,7.436,5.364,16.271,16.271,0,0,1-9.886,3.307,16.734,16.734,0,0,1-1.9-.108,23.033,23.033,0,0,0,12.2,3.472A22.147,22.147,0,0,0,98.556,90.6l-.022-1A15.883,15.883,0,0,0,102.5,85.607Z" transform="translate(-52.288 -66.421)"/></svg>